<svg width="25" height="24" fill="none" xmlns="http://www.w3.org/2000/svg"><g clip-path="url(#a)"><path d="m3.521 10.252.73-.175-.73.175Zm2.745 6.533.45-.599-.45.6Zm-.18-.142-.478.579.478-.579Zm16.433-5.9.73.174-.73-.175Zm-2.13 5.615-.525-.536.526.536Zm-.849.67.398.635-.398-.636ZM19.5 5.46a.75.75 0 0 0 0 1.5v-1.5Zm2.942 1.295.515-.545-.515.545Zm.362.459-.65.373.65-.373ZM2.228 1.818a.75.75 0 0 0-1.456.364l1.456-.364ZM16.5 14.75a.75.75 0 0 0 0-1.5v1.5Zm-6-1.5a.75.75 0 0 0 0 1.5v-1.5Zm-4-6.29a.75.75 0 0 0 0-1.5v1.5ZM14.25 3a.75.75 0 0 0-1.5 0h1.5Zm3.783 5.328a.75.75 0 1 0-1.066-1.056l1.066 1.056Zm-1.93.882.532.528-.533-.528Zm-5.205 0 .533-.528-.533.528Zm-.865-1.938a.75.75 0 0 0-1.066 1.056l1.066-1.056Zm3.718 3.712.095.744-.095-.744Zm-.502 0-.095.744.095-.744Zm.335 6.056h-.505v1.5h.505v-1.5ZM4.25 10.076l-.969-4.041-1.459.35.969 4.04 1.459-.35Zm8.828 6.963c-1.844 0-3.162-.002-4.19-.121-1.007-.117-1.651-.34-2.173-.733l-.901 1.199c.813.612 1.75.89 2.902 1.024 1.133.132 2.553.13 4.362.13v-1.5ZM2.792 10.427c.421 1.758.751 3.14 1.143 4.211.4 1.09.888 1.935 1.673 2.584l.955-1.157c-.503-.415-.87-.99-1.219-1.942-.355-.971-.664-2.253-1.093-4.046l-1.46.35Zm3.924 5.759a4.19 4.19 0 0 1-.153-.12l-.955 1.156c.068.055.137.11.207.163l.901-1.199Zm15.074-5.618c-.372 1.55-.639 2.66-.935 3.51-.292.835-.592 1.352-.99 1.744l1.05 1.07c.626-.613 1.023-1.367 1.356-2.32.327-.938.613-2.133.977-3.655l-1.458-.35Zm-8.206 7.972c1.564 0 2.793 0 3.782-.1 1.003-.101 1.83-.312 2.572-.777l-.796-1.271c-.474.297-1.047.467-1.927.556-.896.09-2.036.091-3.631.091v1.5Zm6.28-2.718c-.22.216-.461.407-.722.57l.796 1.271c.353-.22.68-.479.977-.77l-1.05-1.07ZM19.5 6.961c1.005 0 1.52.002 1.864.058.26.042.374.104.563.282l1.03-1.09a2.368 2.368 0 0 0-1.353-.673c-.495-.08-1.163-.077-2.104-.077v1.5Zm3.748 3.956c.223-.927.407-1.69.477-2.304.072-.628.042-1.226-.27-1.772l-1.302.747c.083.143.138.363.082.854-.058.503-.214 1.16-.445 2.126l1.458.35Zm-1.32-3.616c.088.084.164.181.225.287l1.301-.747a2.748 2.748 0 0 0-.497-.63l-1.03 1.09ZM3.28 6.03 2.228 1.82l-1.456.363 1.053 4.21L3.28 6.03Zm13.22 7.22h-6v1.5h6v-1.5ZM2.553 6.96H6.5v-1.5H2.553v1.5Zm7.67 13.987a.303.303 0 0 1-.302.303v1.5c.996 0 1.803-.807 1.803-1.803h-1.5Zm-.302.303a.303.303 0 0 1-.303-.303h-1.5c0 .996.807 1.803 1.803 1.803v-1.5Zm-.303-.303c0-.167.136-.302.303-.302v-1.5c-.996 0-1.803.807-1.803 1.802h1.5Zm.303-.302c.167 0 .303.135.303.302h1.5c0-.995-.807-1.802-1.803-1.802v1.5Zm6.619.302a.303.303 0 0 1-.303.303v1.5c.995 0 1.803-.807 1.803-1.803h-1.5Zm-.303.303a.303.303 0 0 1-.303-.303h-1.5c0 .996.807 1.803 1.803 1.803v-1.5Zm-.303-.303c0-.167.136-.302.303-.302v-1.5c-.996 0-1.803.807-1.803 1.802h1.5Zm.303-.302c.167 0 .303.135.303.302h1.5c0-.995-.808-1.802-1.803-1.802v1.5Zm.73-13.373-1.397 1.41 1.065 1.056 1.398-1.41-1.066-1.056Zm-5.536 1.41-1.398-1.41-1.066 1.056 1.398 1.41 1.066-1.056Zm4.139 0c-.57.575-.954.96-1.277 1.22-.31.25-.491.32-.637.338l.19 1.488c.533-.068.97-.322 1.387-.657.404-.325.857-.783 1.402-1.333l-1.066-1.056Zm-5.205 1.056c.545.55.998 1.008 1.402 1.333.417.335.854.59 1.388.657l.19-1.488c-.147-.018-.328-.089-.639-.338-.322-.26-.706-.645-1.275-1.22l-1.066 1.056Zm3.29.502c-.05.007-.103.01-.155.01v1.5c.115 0 .23-.007.345-.022l-.19-1.488Zm-.155.01c-.052 0-.104-.003-.156-.01l-.19 1.488c.115.015.23.022.346.022v-1.5ZM12.75 3v8h1.5V3h-1.5Z" fill="#293241"/></g><defs><clipPath id="a"><path fill="#fff" transform="translate(.5)" d="M0 0h24v24H0z"/></clipPath></defs></svg>