<svg width="24" height="24" fill="none" xmlns="http://www.w3.org/2000/svg"><path d="m5.061 21.045.44-.607-.44.607ZM3.955 19.94l.607-.44-.607.44Zm16.09 0-.607-.44.607.44Zm-1.106 1.106-.44-.607.44.607Zm0-18.09.44-.607-.44.607Zm1.106 1.106-.607.44.607-.44ZM5.061 2.955l.44.607-.44-.607ZM3.955 4.06l.607.44-.607-.44Zm9.191 2.534.117.741-.117-.74Zm-1.564 0-.118.741.118-.74ZM8 17.25a.75.75 0 0 0 0 1.5v-1.5Zm8 1.5a.75.75 0 0 0 0-1.5v1.5Zm-8-5.5a.75.75 0 0 0 0 1.5v-1.5Zm8 1.5a.75.75 0 0 0 0-1.5v1.5Zm-8-5.5a.75.75 0 0 0 0 1.5v-1.5Zm8 1.5a.75.75 0 0 0 0-1.5v1.5Zm4.25.25v2h1.5v-2h-1.5Zm-16.5 2v-2h-1.5v2h1.5ZM12 21.25c-1.892 0-3.25-.001-4.302-.115-1.038-.113-1.688-.328-2.196-.697l-.882 1.214c.807.586 1.75.848 2.916.974 1.152.125 2.606.124 4.464.124v-1.5ZM2.25 13c0 1.858-.001 3.312.124 4.463.126 1.166.388 2.11.974 2.917l1.214-.882c-.37-.508-.585-1.158-.697-2.196-.114-1.052-.115-2.41-.115-4.302h-1.5Zm3.252 7.438a4.25 4.25 0 0 1-.94-.94l-1.214.882a5.75 5.75 0 0 0 1.272 1.272l.882-1.214ZM20.25 13c0 1.892-.001 3.25-.115 4.302-.113 1.038-.328 1.688-.697 2.196l1.214.882c.586-.807.848-1.75.974-2.916.125-1.152.124-2.606.124-4.464h-1.5ZM12 22.75c1.858 0 3.312.001 4.463-.124 1.166-.126 2.11-.388 2.917-.974l-.882-1.214c-.508.37-1.158.585-2.196.697-1.052.114-2.41.115-4.302.115v1.5Zm7.438-3.252c-.262.36-.58.678-.94.94l.882 1.214a5.749 5.749 0 0 0 1.272-1.272l-1.214-.882ZM21.75 11c0-1.858.001-3.312-.124-4.464-.126-1.165-.388-2.11-.974-2.916l-1.214.882c.37.508.585 1.158.697 2.196.114 1.052.115 2.41.115 4.302h1.5Zm-3.252-7.438c.36.262.678.58.94.94l1.214-.882a5.75 5.75 0 0 0-1.272-1.272l-.882 1.214ZM3.75 11c0-1.892.001-3.25.115-4.302.112-1.038.328-1.688.697-2.196L3.348 3.62c-.586.807-.848 1.75-.974 2.916C2.249 7.688 2.25 9.142 2.25 11h1.5Zm.87-8.652A5.75 5.75 0 0 0 3.348 3.62l1.214.882c.262-.36.58-.678.94-.94L4.62 2.348Zm8.409 3.507c-.44.07-.89.07-1.33 0l-.235 1.481a5.75 5.75 0 0 0 1.8 0l-.235-1.481ZM17.91 2.12c-1.24 1.24-2.144 2.13-2.924 2.744-.77.606-1.36.895-1.957.99l.235 1.481c.948-.15 1.774-.603 2.65-1.293.864-.68 1.835-1.64 3.057-2.861L17.91 2.12ZM12 2.75c1.662 0 2.915 0 3.915.08.997.078 1.67.23 2.188.491l.675-1.34c-.773-.39-1.671-.563-2.746-.647C14.96 1.249 13.64 1.25 12 1.25v1.5Zm6.103.571c.14.07.271.15.395.24l.882-1.213a4.36 4.36 0 0 0-.602-.366l-.675 1.339ZM5.542 2.967c1.29 1.29 2.303 2.301 3.196 3.016.904.724 1.751 1.199 2.726 1.353l.235-1.481c-.614-.098-1.22-.4-2.023-1.043-.814-.651-1.76-1.593-3.073-2.906l-1.061 1.06ZM12 1.25c-1.436 0-2.626 0-3.615.056-.988.056-1.829.17-2.557.421l.489 1.418c.535-.185 1.215-.289 2.153-.342.937-.053 2.079-.053 3.53-.053v-1.5Zm-6.172.477c-.441.152-.84.354-1.208.621l.882 1.214c.236-.172.5-.308.815-.417l-.49-1.418ZM8 18.75h8v-1.5H8v1.5Zm0-4h8v-1.5H8v1.5Zm0-4h8v-1.5H8v1.5Z" fill="#FBFEFE"/></svg>