<svg width="24" height="24" fill="none" xmlns="http://www.w3.org/2000/svg"><path d="m4.782 7.938.117.741-.117-.74Zm4.156-4.156.741.118-.74-.118Zm10 17.263-.44-.607.44.607Zm1.107-1.106-.607-.44.607.44Zm-16.09 0 .607-.44-.607.44Zm1.106 1.106.44-.607-.44.607Zm0-18.09-.44-.607.44.607ZM3.955 4.06l-.607-.44.607.44Zm14.984-1.106-.44.607.44-.607Zm1.106 1.106-.607.44.607-.44ZM9 2.03l-.026-.75.026.75ZM3.029 8l-.75-.026.75.026Zm9.721 1a.75.75 0 0 0-1.5 0h1.5Zm3.783 5.328a.75.75 0 0 0-1.066-1.056l1.066 1.056Zm-1.93.882.532.528-.533-.528Zm-5.205 0 .533-.528-.533.528Zm-.865-1.938a.75.75 0 1 0-1.066 1.056l1.066-1.056Zm3.718 3.712.095.744-.095-.744Zm-.502 0-.095.744.095-.744ZM4.9 8.68A5.75 5.75 0 0 0 9.68 3.9l-1.481-.234a4.25 4.25 0 0 1-3.533 3.533L4.9 8.68ZM2.25 11v2h1.5v-2h-1.5Zm19.5 2v-2h-1.5v2h1.5ZM12 22.75c1.858 0 3.312.001 4.463-.124 1.166-.126 2.11-.388 2.917-.974l-.882-1.214c-.508.37-1.158.585-2.196.697-1.052.114-2.41.115-4.302.115v1.5ZM20.25 13c0 1.892-.001 3.25-.115 4.302-.113 1.038-.328 1.688-.697 2.196l1.214.882c.586-.807.848-1.75.974-2.916.125-1.152.124-2.606.124-4.464h-1.5Zm-.87 8.652a5.749 5.749 0 0 0 1.272-1.272l-1.214-.882c-.262.36-.58.678-.94.94l.882 1.214ZM2.25 13c0 1.858-.001 3.312.124 4.463.126 1.166.388 2.11.974 2.917l1.214-.882c-.37-.508-.585-1.158-.697-2.196-.114-1.052-.115-2.41-.115-4.302h-1.5ZM12 21.25c-1.892 0-3.25-.001-4.302-.115-1.038-.113-1.688-.328-2.196-.697l-.882 1.214c.807.586 1.75.848 2.916.974 1.152.125 2.606.124 4.464.124v-1.5Zm-8.652-.87a5.75 5.75 0 0 0 1.272 1.272l.882-1.214a4.249 4.249 0 0 1-.94-.94l-1.214.882ZM4.62 2.348A5.75 5.75 0 0 0 3.348 3.62l1.214.882c.262-.36.58-.678.94-.94L4.62 2.348ZM12 2.75c1.892 0 3.25.001 4.302.115 1.038.112 1.688.328 2.196.697l.882-1.214c-.807-.586-1.75-.848-2.916-.974-1.152-.125-2.606-.124-4.464-.124v1.5ZM21.75 11c0-1.858.001-3.312-.124-4.464-.126-1.165-.388-2.11-.974-2.916l-1.214.882c.37.508.585 1.158.697 2.196.114 1.052.115 2.41.115 4.302h1.5Zm-3.252-7.438c.36.262.678.58.94.94l1.214-.882a5.75 5.75 0 0 0-1.272-1.272l-.882 1.214ZM12 1.25c-1.165 0-2.166 0-3.026.03l.052 1.498A92.348 92.348 0 0 1 12 2.75v-1.5Zm-3.026.03c-1.873.064-3.25.266-4.354 1.068l.882 1.214c.705-.513 1.669-.72 3.524-.784L8.974 1.28Zm-.724.749c0 .937-.003 1.324-.052 1.636l1.481.235c.073-.458.071-.989.071-1.871h-1.5ZM3.75 11c0-1.173 0-2.146.028-2.974L2.28 7.974c-.03.86-.029 1.861-.029 3.026h1.5Zm.028-2.974c.064-1.855.271-2.819.784-3.524L3.348 3.62C2.546 4.724 2.344 6.1 2.28 7.974l1.5.052Zm-.75.724c.883 0 1.414.002 1.871-.07l-.234-1.482c-.312.05-.699.052-1.636.052v1.5ZM11.25 9v7.2h1.5V9h-1.5Zm4.217 4.272-1.398 1.41 1.066 1.056 1.398-1.41-1.066-1.056Zm-5.536 1.41-1.398-1.41-1.066 1.056 1.398 1.41 1.066-1.056Zm4.139 0c-.57.575-.954.96-1.277 1.22-.31.25-.491.32-.637.338l.19 1.488c.533-.068.97-.322 1.387-.657.404-.325.857-.783 1.402-1.333l-1.066-1.056Zm-5.205 1.056c.545.55.998 1.008 1.402 1.333.417.335.854.59 1.388.657l.19-1.488c-.147-.018-.328-.089-.639-.338-.322-.26-.706-.645-1.275-1.22l-1.066 1.056Zm3.29.502c-.05.007-.103.01-.155.01v1.5c.115 0 .23-.007.345-.022l-.19-1.488Zm-.155.01c-.052 0-.104-.003-.156-.01l-.19 1.488c.115.015.23.022.346.022v-1.5Zm-.75-.05v.8h1.5v-.8h-1.5Z" fill="#FBFEFE"/></svg>