<svg width="24" height="24" fill="none" xmlns="http://www.w3.org/2000/svg"><path d="M20.309 4.752a.75.75 0 0 0-1.061-1.06l1.06 1.06ZM3.692 19.248a.75.75 0 0 0 1.06 1.06l-1.06-1.06Zm4.773 1.944.53-.53-.53.53Zm-.177-1.237a.75.75 0 0 0-1.06 1.06l1.06-1.06Zm8.485 1.06a.75.75 0 0 0-1.06-1.06l1.06 1.06Zm-1.237.177-.53-.53.53.53ZM2.808 8.464l-.53-.53.53.53Zm1.237-.176a.75.75 0 1 0-1.06-1.061l1.06 1.06Zm-1.06 8.485a.75.75 0 1 0 1.06-1.06l-1.06 1.06Zm-.177-1.237.53-.53-.53.53ZM15.536 2.808l.53-.53-.53.53Zm.176 1.237a.75.75 0 0 0 1.061-1.06l-1.06 1.06Zm-8.485-1.06a.75.75 0 0 0 1.06 1.06l-1.06-1.06Zm1.238-.177.53.53-.53-.53Zm12.727 12.728-.53-.53.53.53Zm-1.237.176a.75.75 0 0 0 1.06 1.061l-1.06-1.06Zm1.06-8.485a.75.75 0 1 0-1.06 1.06l1.06-1.06Zm.177 1.237-.53.53.53-.53Zm-1.944-4.773L3.692 19.248l1.06 1.06L20.31 4.752l-1.061-1.06ZM8.995 20.662l-.707-.707-1.06 1.06.706.708 1.06-1.06Zm6.717-.707-.707.707 1.061 1.06.707-.706-1.06-1.061Zm-7.778 1.768a5.75 5.75 0 0 0 8.132 0l-1.06-1.06a4.25 4.25 0 0 1-6.011 0l-1.06 1.06ZM3.338 8.995l.707-.707-1.06-1.061-.708.707 1.061 1.06Zm.707 6.717-.707-.707-1.06 1.06.707.708 1.06-1.06ZM2.277 7.934a5.75 5.75 0 0 0 0 8.132l1.061-1.06a4.25 4.25 0 0 1 0-6.011l-1.06-1.06Zm12.728-4.596.707.707 1.061-1.06-.707-.708-1.06 1.06Zm-6.717.707.707-.707-1.06-1.06-.708.706 1.06 1.061Zm7.778-1.768a5.75 5.75 0 0 0-8.132 0l1.06 1.06a4.25 4.25 0 0 1 6.011 0l1.061-1.06Zm4.596 12.728-.707.707 1.06 1.061.708-.707-1.06-1.06Zm-.707-6.717.707.707 1.06-1.06-.706-.708-1.06 1.06Zm1.768 7.778a5.75 5.75 0 0 0 0-8.132l-1.06 1.06a4.25 4.25 0 0 1 0 6.011l1.06 1.06Z" fill="#525B67"/></svg>